<?xml version="1.0" standalone="no"?>
<!DOCTYPE svg PUBLIC "-//W3C//DTD SVG 20010904//EN"
 "http://www.w3.org/TR/2001/REC-SVG-20010904/DTD/svg10.dtd">
<svg version="1.0" xmlns="http://www.w3.org/2000/svg"
 width="629.000000pt" height="629.000000pt" viewBox="0 0 629.000000 629.000000"
 preserveAspectRatio="xMidYMid meet">

<g transform="translate(0.000000,629.000000) scale(0.100000,-0.100000)"
fill="#000000" stroke="none">
<path d="M3047 6118 c19 -79 145 -309 276 -503 57 -85 143 -247 178 -335 41
-105 106 -367 119 -480 6 -52 14 -146 18 -209 l7 -113 70 -18 c39 -10 95 -28
125 -40 30 -12 65 -26 77 -30 20 -8 24 -2 57 99 94 286 85 576 -29 917 -57
171 -102 266 -183 389 -90 133 -168 209 -273 263 -97 49 -176 67 -336 76
l-111 7 5 -23z"/>
<path d="M2455 6079 c-29 -13 -271 -69 -329 -76 l-48 -6 5 -45 c7 -68 104
-253 184 -352 37 -47 152 -168 254 -270 296 -295 435 -475 541 -701 l26 -56
99 5 c54 2 122 0 151 -6 l54 -10 -7 47 c-11 79 -34 162 -82 291 -105 287 -237
499 -477 768 -55 63 -100 120 -100 128 1 7 -2 11 -7 9 -9 -6 -115 124 -182
222 -43 65 -48 68 -82 52z"/>
<path d="M4162 5935 c63 -117 136 -355 157 -518 29 -209 1 -546 -59 -737 -16
-52 -30 -100 -30 -107 0 -21 -113 -277 -141 -320 l-28 -42 47 -37 c26 -21 82
-71 124 -112 l77 -74 73 37 c211 108 320 185 457 325 207 210 331 494 331 754
0 220 -50 313 -268 499 l-32 27 0 -130 c0 -257 -80 -525 -234 -780 -67 -111
-220 -284 -336 -380 -52 -43 -54 -44 -27 -10 81 100 110 144 161 241 150 288
217 553 202 803 -17 275 -72 392 -237 501 -65 43 -180 95 -241 109 l-26 6 30
-55z"/>
<path d="M1538 5730 c-171 -111 -338 -238 -338 -259 0 -10 22 -52 48 -92 61
-94 229 -251 365 -342 258 -173 703 -404 932 -483 84 -29 194 -39 215 -18 19
19 -244 292 -440 455 -36 30 -103 90 -149 134 -313 297 -390 396 -492 633 -10
23 -22 42 -26 41 -4 0 -56 -31 -115 -69z"/>
<path d="M785 5114 c-49 -58 -127 -151 -172 -207 l-81 -102 16 -28 c44 -76
250 -243 402 -325 321 -175 961 -245 1294 -142 36 12 66 24 66 28 0 8 -11 12
-165 62 -364 118 -551 201 -764 338 -86 55 -239 174 -302 234 -64 62 -151 177
-143 189 4 8 3 9 -4 5 -6 -4 -18 6 -27 24 -8 16 -19 30 -23 29 -4 0 -47 -47
-97 -105z"/>
<path d="M5600 4929 c0 -40 -49 -237 -86 -349 -92 -275 -305 -524 -561 -657
-109 -56 -280 -127 -444 -185 l-67 -23 48 -98 c27 -54 54 -113 60 -132 7 -22
18 -35 29 -35 31 0 284 48 370 70 122 31 253 86 356 149 109 66 268 221 340
331 99 151 155 320 155 468 0 111 -14 174 -59 269 -31 64 -114 199 -137 222
-2 2 -4 -11 -4 -30z"/>
<path d="M304 4348 c-45 -76 -171 -405 -189 -494 -20 -101 253 -248 532 -285
175 -23 433 4 628 66 59 19 320 132 385 166 60 32 201 145 208 168 4 11 -12
12 -99 5 -57 -5 -198 -9 -314 -8 -194 0 -219 2 -325 28 -162 39 -278 79 -405
141 -138 67 -221 120 -311 201 -40 35 -74 64 -76 64 -2 0 -17 -24 -34 -52z"/>
<path d="M3150 4315 c0 -2 13 -11 29 -20 39 -20 140 -120 172 -170 70 -108 94
-235 93 -470 -2 -210 -21 -318 -83 -485 -25 -65 -26 -70 -6 -44 14 18 14 18
15 0 0 -28 99 127 131 206 99 242 131 461 95 650 -28 146 -89 235 -190 278
-93 39 -256 75 -256 55z m254 -1130 c-4 -8 -8 -15 -10 -15 -2 0 -4 7 -4 15 0
8 4 15 10 15 5 0 7 -7 4 -15z"/>
<path d="M2705 4260 c-35 -4 -45 -8 -33 -14 9 -4 62 -57 117 -117 94 -103 231
-304 260 -382 6 -16 32 -70 57 -120 79 -157 134 -350 134 -473 0 -35 3 -42 15
-37 9 3 13 8 11 11 -3 3 0 12 6 20 20 24 14 256 -11 400 -23 133 -79 330 -113
396 -55 109 -140 212 -213 259 -56 36 -168 64 -230 57z"/>
<path d="M3750 4135 c0 -3 7 -16 15 -28 26 -40 55 -176 55 -258 0 -153 -90
-445 -172 -561 -72 -100 -168 -195 -244 -240 -52 -31 -41 -34 26 -10 13 5 13
3 1 -11 -12 -15 -11 -17 2 -17 20 0 91 35 132 65 17 12 44 29 60 38 50 26 171
143 220 213 102 146 155 286 162 426 3 53 3 112 -1 131 -9 50 -52 107 -126
168 -36 29 -67 56 -70 59 -6 8 -46 30 -54 30 -3 0 -6 -2 -6 -5z"/>
<path d="M5996 4104 c-11 -58 -77 -203 -125 -273 -134 -197 -366 -392 -581
-490 -140 -63 -388 -137 -610 -180 l-55 -11 9 -120 9 -119 52 -6 c111 -14 457
-9 546 7 250 47 482 174 629 344 25 29 49 50 54 47 5 -4 6 -1 2 6 -4 6 6 28
24 51 64 81 128 247 145 376 12 92 -19 241 -75 367 l-17 39 -7 -38z"/>
<path d="M2253 4092 c-29 -8 -53 -18 -53 -22 0 -4 24 -24 53 -44 105 -73 153
-109 271 -204 65 -53 165 -132 222 -175 101 -77 308 -281 335 -329 16 -29 62
-122 78 -158 9 -20 10 -12 6 42 -6 76 -13 100 -26 92 -5 -3 -6 2 -3 11 12 31
-151 291 -260 415 -91 103 -266 267 -319 298 -75 45 -193 92 -226 91 -14 -1
-50 -8 -78 -17z"/>
<path d="M1949 3854 c-74 -36 -172 -121 -148 -127 50 -15 107 -30 199 -53 191
-46 355 -112 625 -253 65 -33 122 -61 128 -61 12 0 214 -112 266 -147 20 -14
35 -28 35 -31 -1 -4 7 -16 17 -26 18 -19 18 -18 2 23 -13 33 -45 67 -132 145
-196 172 -296 249 -452 347 -144 90 -237 130 -434 186 -11 3 -24 11 -30 18 -8
9 -26 4 -76 -21z"/>
<path d="M4214 3663 c-51 -224 -121 -355 -268 -498 -76 -74 -109 -98 -187
-136 -52 -26 -128 -57 -169 -69 -41 -12 -86 -25 -100 -29 -14 -4 -24 -13 -23
-19 2 -7 -6 -12 -18 -12 -11 0 -18 4 -15 9 4 5 -40 11 -101 13 -89 2 -116 7
-152 26 -54 29 -65 22 -14 -8 59 -35 186 -52 383 -52 207 0 274 14 421 88 79
39 109 62 184 138 126 126 185 249 185 381 0 52 -16 86 -75 158 -36 44 -43 45
-51 10z m-831 -760 c-7 -2 -19 -2 -25 0 -7 3 -2 5 12 5 14 0 19 -2 13 -5z"/>
<path d="M1740 3407 c-61 -30 -75 -68 -65 -183 6 -73 9 -85 23 -81 10 3 55 19
102 35 107 39 230 56 340 48 83 -7 117 -10 400 -40 265 -29 296 -30 281 -12
-12 14 -9 16 25 15 22 -1 31 -3 22 -6 -10 -2 -18 -9 -18 -14 0 -6 31 -8 78 -5
42 3 83 5 90 6 28 0 10 20 -19 20 -39 0 -301 63 -754 180 -182 47 -261 60
-365 60 -77 -1 -103 -5 -140 -23z"/>
<path d="M1414 3346 c-148 -85 -255 -129 -394 -165 -333 -86 -663 -56 -917 84
-36 20 -68 34 -70 31 -9 -9 -4 -435 5 -534 11 -112 24 -129 122 -161 217 -70
489 -39 768 90 121 56 214 121 326 229 168 162 244 279 269 413 8 42 12 77 8
77 -3 -1 -56 -29 -117 -64z"/>
<path d="M2948 3153 c6 -2 18 -2 25 0 6 3 1 5 -13 5 -14 0 -19 -2 -12 -5z"/>
<path d="M6156 3051 c-116 -184 -296 -333 -504 -419 -237 -99 -423 -118 -727
-77 -91 12 -228 20 -312 16 -27 -1 -33 -5 -33 -23 -1 -13 -14 -72 -30 -133
-16 -60 -25 -113 -22 -116 4 -3 57 -24 117 -47 102 -38 146 -52 296 -96 31 -9
110 -23 175 -32 212 -29 423 -5 602 67 195 78 387 262 448 430 49 137 56 173
61 347 3 109 2 172 -5 172 -5 0 -35 -40 -66 -89z"/>
<path d="M2854 3112 c-23 -9 -50 -24 -60 -32 -13 -11 -16 -11 -10 -1 12 19
-24 7 -107 -38 -84 -44 -176 -131 -292 -276 -177 -219 -228 -320 -229 -450 -1
-126 48 -213 173 -309 l56 -43 0 141 c1 209 24 335 102 547 72 194 188 326
409 466 27 17 6 15 -42 -5z"/>
<path d="M2989 3112 c-57 -38 -130 -113 -193 -198 -36 -49 -69 -93 -73 -99
-61 -77 -143 -326 -165 -498 -34 -269 60 -476 237 -522 33 -8 67 -15 77 -15
17 0 17 1 -2 20 -30 30 -70 115 -96 206 -83 285 -58 620 62 860 36 71 140 218
171 241 26 20 10 24 -18 5z m-126 -149 c-8 -21 -33 -48 -33 -36 0 10 29 53 35
53 3 0 1 -8 -2 -17z"/>
<path d="M2365 3083 c-232 -27 -327 -58 -441 -143 -138 -104 -150 -270 -30
-449 l50 -75 17 72 c38 170 100 254 296 402 50 39 94 70 97 70 7 0 71 46 112
80 53 44 51 50 -13 49 -32 -1 -71 -4 -88 -6z"/>
<path d="M3316 3074 c-9 -23 -2 -28 13 -10 7 8 8 17 3 20 -6 3 -13 -1 -16 -10z"/>
<path d="M3080 3070 c-24 -8 -23 -8 8 -9 20 -1 31 3 27 9 -3 6 -7 10 -8 9 -1
-1 -13 -5 -27 -9z"/>
<path d="M4443 3024 c-67 -119 -248 -229 -443 -269 -155 -33 -399 -27 -532 11
-101 29 -231 87 -305 134 -12 8 -26 10 -30 6 -4 -5 -3 -11 4 -13 6 -2 31 -19
54 -36 155 -118 267 -183 374 -216 188 -58 475 -80 608 -45 120 31 198 87 241
173 39 76 57 153 54 227 l-3 67 -22 -39z"/>
<path d="M2990 3023 c-183 -389 -165 -931 40 -1209 53 -71 71 -80 160 -88 l75
-7 -52 53 c-82 85 -129 198 -202 493 -47 191 -57 298 -42 465 17 188 21 213
47 303 8 27 -11 20 -26 -10z m-30 -255 c0 -31 -3 -39 -11 -31 -7 7 -8 24 -4
42 9 43 15 39 15 -11z"/>
<path d="M3034 2883 c11 -195 27 -273 103 -518 61 -196 237 -470 357 -557 43
-31 71 -34 156 -16 l57 11 -106 106 c-140 141 -208 220 -266 311 -56 87 -185
352 -208 425 -35 117 -48 164 -64 235 -9 41 -17 85 -17 98 -1 12 -5 22 -9 22
-5 0 -6 -53 -3 -117z"/>
<path d="M3090 2945 c7 -9 15 -13 17 -11 7 7 -7 26 -19 26 -6 0 -6 -6 2 -15z"/>
<path d="M3080 2906 c0 -4 12 -25 26 -47 14 -23 34 -60 44 -83 23 -50 58 -92
68 -81 4 4 1 10 -5 12 -7 3 -13 10 -13 16 0 14 53 -41 62 -64 5 -13 2 -16 -13
-12 -10 3 -17 9 -14 13 3 5 1 11 -5 15 -21 13 -9 -24 22 -66 140 -194 351
-419 468 -501 104 -73 180 -101 275 -101 99 -1 141 19 214 99 78 85 160 214
136 214 -3 0 -23 -14 -44 -31 -84 -67 -249 -88 -386 -49 -198 56 -406 197
-624 423 -41 43 -81 75 -88 73 -7 -3 -15 -1 -18 4 -4 6 -1 10 4 10 21 0 10 22
-34 69 -25 26 -45 53 -45 58 0 6 -7 16 -15 23 -8 7 -15 10 -15 6z"/>
<path d="M1544 2822 c-13 -33 -147 -211 -206 -272 -61 -65 -183 -171 -226
-198 -91 -56 -248 -136 -324 -163 -169 -62 -278 -82 -450 -83 -120 -1 -158 -4
-158 -14 0 -17 129 -272 191 -378 55 -92 81 -131 137 -200 l33 -41 52 9 c130
24 368 135 408 192 4 5 12 5 19 1 8 -5 11 -4 7 2 -8 12 58 75 68 65 4 -4 5 -2
3 4 -2 6 32 48 75 95 128 137 277 389 335 569 35 107 62 257 62 346 0 87 -9
111 -26 66z"/>
<path d="M1730 2355 c-1 -142 -35 -331 -85 -465 -93 -249 -158 -352 -339 -538
-99 -102 -195 -174 -329 -247 -38 -20 -71 -44 -74 -53 -5 -10 13 -33 54 -72
54 -51 243 -199 268 -209 5 -2 38 -23 73 -47 94 -63 139 -78 190 -65 113 31
263 211 352 424 71 171 100 327 100 545 0 293 -48 509 -160 722 l-49 95 -1
-90z"/>
<path d="M2130 1985 c0 -4 7 -20 17 -38 26 -51 90 -248 107 -328 49 -237 35
-542 -35 -759 -30 -92 -109 -252 -168 -340 -28 -41 -51 -81 -51 -88 0 -18 75
-50 215 -89 248 -70 340 -79 386 -40 64 55 131 175 177 317 34 104 42 333 17
482 -34 207 -123 425 -241 588 -51 72 -60 79 -157 129 -112 59 -190 108 -231
146 -27 25 -36 30 -36 20z"/>
<path d="M4375 1930 c-58 -15 -175 -82 -175 -100 0 -14 222 -220 294 -274 193
-142 370 -222 569 -257 90 -15 323 -7 402 15 67 19 210 84 245 112 112 90 190
193 261 344 22 47 48 98 56 114 9 16 12 27 7 25 -5 -2 -31 -16 -59 -30 -245
-129 -594 -176 -890 -121 -123 22 -324 85 -462 143 -76 32 -103 39 -155 38
-35 -1 -76 -5 -93 -9z"/>
<path d="M3918 1705 c-4 -5 -287 -54 -310 -55 -12 0 -9 -20 3 -20 21 0 126
-89 219 -186 147 -153 202 -248 274 -467 24 -73 49 -156 56 -185 13 -57 10
-54 135 -134 161 -103 270 -136 419 -125 134 10 241 56 436 188 63 43 159 118
211 166 52 48 109 98 125 111 23 18 25 21 8 17 -146 -38 -380 -45 -520 -15
-156 32 -333 112 -464 209 -58 42 -115 95 -112 103 1 5 -2 7 -7 6 -10 -3 -89
72 -216 202 -132 137 -195 190 -225 190 -15 0 -29 -2 -32 -5z"/>
<path d="M2890 1641 c0 -7 6 -14 14 -17 21 -8 95 -124 153 -239 52 -104 90
-210 119 -330 21 -92 30 -364 15 -475 -9 -68 -69 -269 -106 -352 -7 -17 2 -18
102 -18 125 0 238 12 373 41 52 11 114 23 138 26 23 3 45 9 47 13 3 4 12 57
21 116 60 403 -85 820 -384 1101 -87 83 -126 100 -242 108 -102 7 -209 22
-234 31 -9 3 -16 1 -16 -5z"/>
</g>
</svg>
